<?xml version="1.0" encoding="UTF-8" standalone="no"?>
<svg
   xmlns:dc="http://purl.org/dc/elements/1.1/"
   xmlns:cc="http://creativecommons.org/ns#"
   xmlns:rdf="http://www.w3.org/1999/02/22-rdf-syntax-ns#"
   xmlns:svg="http://www.w3.org/2000/svg"
   xmlns="http://www.w3.org/2000/svg"
   xmlns:sodipodi="http://sodipodi.sourceforge.net/DTD/sodipodi-0.dtd"
   xmlns:inkscape="http://www.inkscape.org/namespaces/inkscape"
   inkscape:export-ydpi="576"
   inkscape:export-xdpi="576"
   inkscape:export-filename="D:\project\finish project september adnan\expanded line\png\3 - Flow.png"
   sodipodi:docname="4 - Creative Design.svg"
   inkscape:version="1.0 (4035a4fb49, 2020-05-01)"
   id="svg831"
   version="1.1"
   viewBox="0 0 22.577778 22.577778"
   height="64pt"
   width="64pt">
  <defs
     id="defs825">
    <pattern
       y="0"
       x="0"
       height="6"
       width="6"
       patternUnits="userSpaceOnUse"
       id="EMFhbasepattern" />
    <pattern
       y="0"
       x="0"
       height="6"
       width="6"
       patternUnits="userSpaceOnUse"
       id="EMFhbasepattern-9" />
    <pattern
       y="0"
       x="0"
       height="6"
       width="6"
       patternUnits="userSpaceOnUse"
       id="EMFhbasepattern-0" />
    <pattern
       y="0"
       x="0"
       height="6"
       width="6"
       patternUnits="userSpaceOnUse"
       id="EMFhbasepattern-7" />
    <pattern
       y="0"
       x="0"
       height="6"
       width="6"
       patternUnits="userSpaceOnUse"
       id="EMFhbasepattern-2" />
    <pattern
       y="0"
       x="0"
       height="6"
       width="6"
       patternUnits="userSpaceOnUse"
       id="EMFhbasepattern-98" />
    <pattern
       y="0"
       x="0"
       height="6"
       width="6"
       patternUnits="userSpaceOnUse"
       id="EMFhbasepattern-6" />
    <pattern
       y="0"
       x="0"
       height="6"
       width="6"
       patternUnits="userSpaceOnUse"
       id="EMFhbasepattern-01" />
    <pattern
       y="0"
       x="0"
       height="6"
       width="6"
       patternUnits="userSpaceOnUse"
       id="EMFhbasepattern-07" />
    <pattern
       y="0"
       x="0"
       height="6"
       width="6"
       patternUnits="userSpaceOnUse"
       id="EMFhbasepattern-8" />
    <pattern
       y="0"
       x="0"
       height="6"
       width="6"
       patternUnits="userSpaceOnUse"
       id="EMFhbasepattern-4" />
    <pattern
       y="0"
       x="0"
       height="6"
       width="6"
       patternUnits="userSpaceOnUse"
       id="EMFhbasepattern-40" />
    <pattern
       y="0"
       x="0"
       height="6"
       width="6"
       patternUnits="userSpaceOnUse"
       id="EMFhbasepattern-08" />
    <pattern
       y="0"
       x="0"
       height="6"
       width="6"
       patternUnits="userSpaceOnUse"
       id="EMFhbasepattern-04" />
    <pattern
       y="0"
       x="0"
       height="6"
       width="6"
       patternUnits="userSpaceOnUse"
       id="EMFhbasepattern-014" />
    <pattern
       y="0"
       x="0"
       height="6"
       width="6"
       patternUnits="userSpaceOnUse"
       id="EMFhbasepattern-27" />
    <pattern
       y="0"
       x="0"
       height="6"
       width="6"
       patternUnits="userSpaceOnUse"
       id="EMFhbasepattern-09" />
    <pattern
       y="0"
       x="0"
       height="6"
       width="6"
       patternUnits="userSpaceOnUse"
       id="EMFhbasepattern-5" />
    <pattern
       y="0"
       x="0"
       height="6"
       width="6"
       patternUnits="userSpaceOnUse"
       id="EMFhbasepattern-018" />
  </defs>
  <sodipodi:namedview
     inkscape:document-rotation="0"
     inkscape:snap-global="true"
     inkscape:snap-nodes="false"
     inkscape:bbox-nodes="true"
     inkscape:snap-bbox="true"
     showguides="true"
     inkscape:snap-midpoints="true"
     inkscape:snap-smooth-nodes="true"
     inkscape:snap-intersection-paths="true"
     inkscape:object-paths="true"
     inkscape:showpageshadow="false"
     inkscape:pagecheckerboard="true"
     inkscape:window-maximized="1"
     inkscape:window-y="-8"
     inkscape:window-x="-8"
     inkscape:window-height="706"
     inkscape:window-width="1366"
     units="pt"
     showgrid="false"
     inkscape:current-layer="layer1"
     inkscape:document-units="pt"
     inkscape:cy="42.666667"
     inkscape:cx="42.666667"
     inkscape:zoom="6.2578125"
     inkscape:pageshadow="2"
     inkscape:pageopacity="0.0"
     borderopacity="1.0"
     bordercolor="#666666"
     pagecolor="#ffffff"
     id="base">
    <inkscape:grid
       id="grid1378"
       type="xygrid" />
    <sodipodi:guide
       inkscape:locked="false"
       id="guide1380"
       orientation="78.000048,0"
       position="0.97013831,21.607643" />
    <sodipodi:guide
       inkscape:locked="false"
       id="guide1382"
       orientation="0,78.000005"
       position="0.97013831,0.97013129" />
    <sodipodi:guide
       inkscape:locked="false"
       id="guide1384"
       orientation="-78.000048,0"
       position="21.607639,0.97013129" />
    <sodipodi:guide
       inkscape:locked="false"
       id="guide1386"
       orientation="0,-78.000005"
       position="21.607639,21.607643" />
  </sodipodi:namedview>
  <metadata
     id="metadata828">
    <rdf:RDF>
      <cc:Work
         rdf:about="">
        <dc:format>image/svg+xml</dc:format>
        <dc:type
           rdf:resource="http://purl.org/dc/dcmitype/StillImage" />
        <dc:title></dc:title>
      </cc:Work>
    </rdf:RDF>
  </metadata>
  <g
     transform="translate(0,-274.42223)"
     id="layer1"
     inkscape:groupmode="layer"
     inkscape:label="Icon">
    <path
       id="path1579"
       style="color:#000000;font-style:normal;font-variant:normal;font-weight:normal;font-stretch:normal;font-size:medium;line-height:normal;font-family:sans-serif;font-variant-ligatures:normal;font-variant-position:normal;font-variant-caps:normal;font-variant-numeric:normal;font-variant-alternates:normal;font-variant-east-asian:normal;font-feature-settings:normal;font-variation-settings:normal;text-indent:0;text-align:start;text-decoration:none;text-decoration-line:none;text-decoration-style:solid;text-decoration-color:#000000;letter-spacing:normal;word-spacing:normal;text-transform:none;writing-mode:lr-tb;direction:ltr;text-orientation:mixed;dominant-baseline:auto;baseline-shift:baseline;text-anchor:start;white-space:normal;shape-padding:0;shape-margin:0;inline-size:0;clip-rule:nonzero;display:inline;overflow:visible;visibility:visible;isolation:auto;mix-blend-mode:normal;color-interpolation:sRGB;color-interpolation-filters:linearRGB;solid-color:#000000;solid-opacity:1;vector-effect:none;fill:#000000;fill-opacity:1;fill-rule:nonzero;stroke:none;stroke-width:0.529169;stroke-linecap:round;stroke-linejoin:round;stroke-miterlimit:4;stroke-dasharray:none;stroke-dashoffset:0;stroke-opacity:1;color-rendering:auto;image-rendering:auto;shape-rendering:auto;text-rendering:auto;enable-background:accumulate;stop-color:#000000"
       d="m 11.211743,275.39303 c -1.4205176,0.0373 -2.3649924,0.65273 -3.2344931,1.52001 -0.00564,0.005 -0.011515,0.0113 -0.016859,0.0162 -0.8954933,1.02609 -1.4201222,2.50547 -0.9671054,3.88916 0.353328,1.13311 1.300272,1.77146 1.8603187,2.51241 0.00266,0.003 0.00554,0.005 0.00843,0.009 0.4812228,0.59327 0.4880429,1.44527 0.4381786,2.29525 a 0.33190922,0.33190922 0 0 0 0.018154,0.16919 l 0.5425403,1.40787 c -0.146792,0.17752 -0.2832559,0.38833 -0.3558603,0.64561 -0.1181343,0.39963 -0.030366,0.78263 0.1179713,1.0935 0.1483285,0.31086 0.3536367,0.57046 0.5166109,0.79468 a 0.33190922,0.33190922 0 0 0 0.03306,0.0383 c 0.129886,0.13144 0.145567,0.2608 0.143251,0.49457 -0.0023,0.23377 -0.05657,0.53946 0.06612,0.87442 a 0.33190922,0.33190922 0 0 0 0.412252,0.20288 c 0.960382,-0.30345 1.750418,-1.02894 2.163023,-1.93746 a 0.33190922,0.33190922 0 0 0 0.0162,-0.0493 c 0.180418,-0.65287 0.07383,-1.50333 -0.270296,-2.12803 0.184901,-0.47893 0.368392,-0.95822 0.553558,-1.43704 a 0.33190922,0.33190922 0 0 0 0.02137,-0.13159 h 6.65e-4 c -0.0242,-0.55972 -0.0397,-1.33456 0.131586,-1.74558 0.004,-0.009 0.0077,-0.0162 0.01104,-0.0246 0.254953,-0.7858 1.10499,-1.28165 1.685307,-2.16561 0.920633,-1.20109 0.791371,-2.87304 0.112137,-4.07067 -9.94e-4,-10e-4 -0.0016,-0.004 -0.0026,-0.005 -0.373417,-0.63651 -1.003791,-1.19708 -1.722899,-1.61011 -0.719109,-0.41302 -1.52766,-0.67709 -2.281645,-0.65728 z m 5.855789,0.0395 a 0.3318758,0.3318758 0 0 0 -0.01557,0.001 0.3318758,0.3318758 0 0 0 -0.134824,0.044 l -1.192678,0.68839 a 0.3318758,0.3318758 0 0 0 -0.12251,0.45309 0.3318758,0.3318758 0 0 0 0.453088,0.11992 l 1.193326,-0.68838 a 0.3318758,0.3318758 0 0 0 0.122511,-0.45309 0.3318758,0.3318758 0 0 0 -0.303354,-0.16528 z m -11.3641478,0.001 a 0.3318758,0.3318758 0 0 0 -0.2709466,0.16399 0.3318758,0.3318758 0 0 0 0.122512,0.45309 l 1.193325,0.68838 a 0.3318758,0.3318758 0 0 0 0.4530865,-0.11965 0.3318758,0.3318758 0 0 0 -0.1225082,-0.45309 l -1.193325,-0.68839 a 0.3318758,0.3318758 0 0 0 -0.154269,-0.044 0.3318758,0.3318758 0 0 0 -0.027878,0 z m 5.5252108,0.62097 c 0.579352,-0.0152 1.295082,0.20612 1.931619,0.57171 0.635316,0.3649 1.190322,0.87322 1.481771,1.36834 6.65e-4,9.9e-4 0.002,10e-4 0.0026,0.003 0.562738,0.9965 0.6503,2.40728 -0.06871,3.3395 -0.0049,0.008 -0.0093,0.0147 -0.01361,0.0221 -0.457482,0.70509 -1.410769,1.24721 -1.767625,2.3309 -0.218281,0.53899 -0.170866,1.14433 -0.148438,1.66262 h -1.35729 -1.3333373 c 0.033868,-0.80655 0.011979,-1.70344 -0.5794847,-2.43268 -0.6503866,-0.85635 -1.4833777,-1.44293 -1.7507731,-2.30303 1.33e-5,-0.001 1.33e-5,-0.004 0,-0.005 -0.3597698,-1.09888 0.064182,-2.35751 0.8322809,-3.24034 0.811094,-0.80631 1.5318979,-1.28392 2.7710322,-1.31648 z m -6.6362142,0.98072 v 6.7e-4 a 0.3318758,0.3318758 0 0 0 -0.3040046,0.23983 0.3318758,0.3318758 0 0 0 0.2255724,0.4116 l 1.5115872,0.43624 a 0.3318758,0.3318758 0 0 0 0.4116055,-0.22558 0.3318758,0.3318758 0 0 0 -0.2281646,-0.4116 l -1.5115905,-0.43873 a 0.3318758,0.3318758 0 0 0 -0.1050052,-0.0125 z m 13.5991212,6.7e-4 a 0.3318758,0.3318758 0 0 0 -0.08557,0.0125 l -1.511588,0.43819 a 0.3318758,0.3318758 0 0 0 -0.228164,0.4116 0.3318758,0.3318758 0 0 0 0.411603,0.22557 l 1.51159,-0.43624 a 0.3318758,0.3318758 0 0 0 0.225572,-0.4116 0.3318758,0.3318758 0 0 0 -0.323449,-0.23984 z m -7.583876,1.56409 a 0.33187603,0.33187603 0 0 0 -0.0363,10e-4 v 0.001 a 0.33187603,0.33187603 0 0 0 -0.239183,0.14518 0.33187603,0.33187603 0 0 0 0.09075,0.46218 c 0.220884,0.14723 0.441591,0.29221 0.662458,0.43946 a 0.33190922,0.33190922 0 0 0 0.382433,-0.009 c 0.199833,-0.14725 0.399084,-0.29483 0.598933,-0.44207 a 0.33187603,0.33187603 0 0 0 0.06871,-0.46476 0.33187603,0.33187603 0 0 0 -0.461513,-0.0687 c -0.136753,0.10073 -0.276137,0.20196 -0.412903,0.30271 -0.1565,-0.10423 -0.313447,-0.2068 -0.469939,-0.31114 a 0.33187603,0.33187603 0 0 0 -0.183438,-0.0564 z m -1.4104712,0.12574 a 0.33187603,0.33187603 0 0 0 -0.3078942,0.29688 c -0.068662,0.64785 0.195624,1.2961 0.6896806,1.71512 l -0.018784,-0.0162 c 0.247181,0.24125 0.4358987,0.48049 0.5055928,0.75321 a 0.33190922,0.33190922 0 0 0 0.01945,0.0518 c 0.206967,0.46937 0.18893,1.0248 0.189272,1.6328 a 0.33187603,0.33187603 0 0 0 0.332523,0.33253 0.33187603,0.33187603 0 0 0 0.332525,-0.33253 c -3.28e-4,-0.57742 0.02851,-1.23089 -0.241777,-1.86939 -0.120129,-0.44305 -0.398138,-0.77553 -0.673476,-1.04425 a 0.33190922,0.33190922 0 0 0 -0.0162,-0.0143 C 9.6859147,279.95863 9.504684,279.5138 9.5491487,279.09427 a 0.33187603,0.33187603 0 0 0 -0.2942808,-0.36558 0.33187603,0.33187603 0 0 0 -0.057687,-0.003 z m 4.2735452,10e-4 a 0.33187603,0.33187603 0 0 0 -0.04602,0.003 0.33187603,0.33187603 0 0 0 -0.29428,0.36493 c 0.04447,0.41954 -0.13676,0.865 -0.458925,1.13822 a 0.33190922,0.33190922 0 0 0 -0.01686,0.0143 c -0.275334,0.26873 -0.553347,0.60122 -0.673472,1.04425 -0.270296,0.63851 -0.241453,1.29133 -0.241778,1.86874 a 0.33187603,0.33187603 0 0 0 0.332523,0.33252 0.33187603,0.33187603 0 0 0 0.32993,-0.33252 c 3.32e-4,-0.60799 -0.01447,-1.16278 0.192515,-1.63215 a 0.33190922,0.33190922 0 0 0 0.01945,-0.0526 c 0.06969,-0.27273 0.255823,-0.51197 0.502998,-0.7532 0.482378,-0.41939 0.740653,-1.05839 0.672828,-1.69827 a 0.33187603,0.33187603 0 0 0 -0.318913,-0.29655 z m -7.8476927,0.53735 v 6.7e-4 a 0.33187663,0.33187663 0 0 0 -0.066763,0.005 c -1.9976987,0.35805 -3.2609034,1.61269 -3.6888736,3.12041 -0.3486154,1.22815 -0.1600769,2.61089 0.5418898,3.82759 -1.2484297,1.91663 -0.4180505,4.79169 1.9744009,5.49669 -0.1429919,0.70982 -0.027745,1.44278 0.3020566,2.08718 0.6410675,1.25262 2.0482002,2.20758 3.7958273,2.22785 h 0.00266 c 1.0082249,4e-4 1.7857227,-0.23204 2.3237767,-0.65144 0.195793,-0.15262 0.355578,-0.33152 0.480961,-0.52698 0.125442,0.19566 0.285031,0.37426 0.48096,0.52698 0.53805,0.4194 1.315552,0.65184 2.323777,0.65144 a 0.33190985,0.33190985 0 0 0 0.0026,0 c 1.74763,-0.0202 3.154773,-0.97525 3.795827,-2.22785 0.330963,-0.64668 0.446091,-1.3827 0.300763,-2.09496 2.388827,-0.70678 3.222468,-3.57269 1.975051,-5.48826 0.702331,-1.21689 0.891225,-2.59982 0.542537,-3.82824 -0.427974,-1.50773 -1.691176,-2.76171 -3.688874,-3.11976 a 0.33187663,0.33187663 0 0 0 -0.05639,-0.005 0.33187663,0.33187663 0 0 0 -0.328634,0.27224 0.33187663,0.33187663 0 0 0 0.267057,0.38439 c 1.786247,0.32013 2.805587,1.36914 3.168373,2.64722 0.362787,1.27809 0.04542,2.80441 -0.972289,4.02853 a 0.33187663,0.33187663 0 0 0 0.04278,0.46735 0.33187663,0.33187663 0 0 0 0.467351,-0.0454 c 0.0519,-0.0625 0.100309,-0.1267 0.149081,-0.19056 0.795808,1.54811 0.114157,3.70373 -1.768273,4.24891 -0.195474,-0.4388 -0.50148,-0.85424 -0.934698,-1.21601 a 0.33187663,0.33187663 0 0 0 -0.208068,-0.0753 0.33187663,0.33187663 0 0 0 -0.259279,0.11803 0.33187663,0.33187663 0 0 0 0.04019,0.46735 c 1.103255,0.92134 1.196482,2.10499 0.672828,3.12819 -0.522999,1.02191 -1.700732,1.84728 -3.207915,1.86679 -0.905148,3.8e-4 -1.529595,-0.21199 -1.915414,-0.51272 -0.385818,-0.30074 -0.558095,-0.68609 -0.558095,-1.14601 0,-0.51452 0.0896,-0.95515 0.26187,-1.23156 0.172273,-0.27641 0.395064,-0.42717 0.854968,-0.42717 a 0.33187663,0.33187663 0 0 0 0.331229,-0.33122 0.33187663,0.33187663 0 0 0 -0.331229,-0.33123 c -0.639266,0 -1.142237,0.29309 -1.418898,0.737 -0.276661,0.4439 -0.360397,0.99956 -0.360397,1.58418 0,0.45992 -0.172277,0.84527 -0.558095,1.14601 -0.384813,0.29994 -1.0088922,0.51197 -1.9102298,0.51272 -1.5099012,-0.0176 -2.690094,-0.84359 -3.2137473,-1.86679 -0.5236533,-1.0232 -0.4297789,-2.20685 0.6734752,-3.12819 0.1400847,-0.11803 0.1581288,-0.32718 0.040186,-0.46735 -0.061337,-0.0725 -0.1507014,-0.11577 -0.2456676,-0.11803 -0.080526,-0.003 -0.1593069,0.0242 -0.2216796,0.0753 -0.4330379,0.36162 -0.7385494,0.77682 -0.9340507,1.21536 -1.88355,-0.54551 -2.5670843,-2.70285 -1.770865,-4.25022 0.049254,0.0646 0.098564,0.12877 0.1510267,0.19188 a 0.33187663,0.33187663 0 0 0 0.4673505,0.0454 0.33187663,0.33187663 0 0 0 0.042779,-0.46735 c -1.0176881,-1.22412 -1.3350541,-2.74979 -0.9722643,-4.02788 0.3627865,-1.27807 1.37888,-2.32707 3.1651341,-2.64722 A 0.33187663,0.33187663 0 0 0 5.9413803,279.537 0.33187663,0.33187663 0 0 0 5.623115,279.26476 Z m 0.4051238,1.82791 a 0.3318758,0.3318758 0 0 0 -0.2048303,0.0784 c -0.2962886,0.25109 -0.5142014,0.541 -0.6002269,0.8796 -0.086022,0.33861 -0.022966,0.705 0.1665849,1.04619 a 0.3318758,0.3318758 0 0 0 0.4504946,0.12964 0.3318758,0.3318758 0 0 0 0.1302878,-0.4505 c -0.1281969,-0.23076 -0.1471172,-0.39816 -0.1056562,-0.56134 0.041455,-0.16316 0.1594995,-0.34328 0.3869737,-0.53605 a 0.3318758,0.3318758 0 0 0 0.039539,-0.468 0.3318758,0.3318758 0 0 0 -0.2352964,-0.11791 0.3318758,0.3318758 0 0 0 -0.027878,0 z m 10.4910289,0 a 0.3318758,0.3318758 0 0 0 -0.235296,0.1179 0.3318758,0.3318758 0 0 0 0.0389,0.46801 c 0.227475,0.19276 0.345516,0.37289 0.386971,0.53605 0.04147,0.16318 0.02319,0.33058 -0.105,0.56134 a 0.3318758,0.3318758 0 0 0 0.129636,0.45049 0.3318758,0.3318758 0 0 0 0.451146,-0.12963 c 0.189544,-0.34119 0.252606,-0.70758 0.166584,-1.04619 -0.08603,-0.33861 -0.303938,-0.62851 -0.600227,-0.8796 a 0.3318758,0.3318758 0 0 0 -0.232701,-0.0784 z m -9.865523,2.50657 c -0.1420063,-0.008 -0.2732598,0.076 -0.3260412,0.20807 -0.085044,0.21261 -0.1649323,0.36792 -0.2690018,0.47513 -0.072024,0.0743 -0.1614542,0.1362 -0.2994646,0.18343 -0.159287,-0.25541 -0.3636362,-0.496 -0.6222668,-0.71042 a 0.3318758,0.3318758 0 0 0 -0.2002937,-0.0759 0.3318758,0.3318758 0 0 0 -0.2670536,0.1179 0.3318758,0.3318758 0 0 0 0.044076,0.46799 c 0.5885151,0.4879 0.8087146,1.07031 0.8082997,1.70995 -3.319e-4,0.63963 -0.2463579,1.33413 -0.6397699,1.95236 a 0.3318758,0.3318758 0 0 0 0.1030635,0.45827 0.3318758,0.3318758 0 0 0 0.4582737,-0.10048 c 0.1834211,-0.28823 0.3390973,-0.59437 0.4615129,-0.91006 1.0885884,0.61241 1.653381,1.36022 1.9147663,2.47545 2.754e-4,0.001 0.00232,0.001 0.00266,0.002 0.098288,0.59629 0.159224,1.09153 0.09334,1.59976 -0.023895,0.18204 0.1044044,0.34859 0.2865016,0.37206 0.1811509,0.0224 0.3459704,-0.10549 0.3694704,-0.28651 0.080453,-0.62055 0.00514,-1.19384 -0.097877,-1.81494 -0.00133,-0.008 -0.00266,-0.0148 -0.00454,-0.0221 -0.3071409,-1.31449 -1.0775636,-2.27751 -2.3685032,-2.97585 0.053289,-0.24811 0.084748,-0.49915 0.084913,-0.75062 1.991e-4,-0.30779 -0.046519,-0.61617 -0.1445484,-0.9133 0.1983952,-0.0793 0.3671506,-0.18438 0.4952214,-0.31632 0.2044885,-0.21067 0.3124974,-0.45618 0.4064182,-0.69098 0.068048,-0.1698 -0.013839,-0.36252 -0.1834409,-0.43105 -0.03354,-0.0139 -0.069441,-0.0222 -0.1056563,-0.0246 z m 9.267238,0 c -0.03621,0.003 -0.07147,0.0113 -0.105012,0.0246 -0.169616,0.0685 -0.252134,0.26126 -0.184085,0.43105 0.09392,0.2348 0.202574,0.48031 0.407065,0.69098 0.128241,0.1321 0.296474,0.23767 0.495222,0.31696 -0.0979,0.29696 -0.145399,0.60506 -0.145197,0.91266 2.06e-4,0.25146 0.03163,0.50251 0.08492,0.75061 -1.290943,0.69833 -2.060719,1.66137 -2.367856,2.97586 -0.002,0.008 -0.0038,0.0146 -0.0051,0.0221 -0.103018,0.6211 -0.178333,1.19439 -0.09788,1.81494 0.02349,0.18102 0.188969,0.30896 0.370119,0.28651 0.182098,-0.0235 0.31041,-0.19003 0.286503,-0.37208 -0.06588,-0.50823 -0.0055,-1.00345 0.09269,-1.59973 3.32e-4,-10e-4 0.0024,-10e-4 0.0026,-0.003 0.261335,-1.11503 0.826581,-1.86246 1.914766,-2.47481 0.12236,0.31549 0.278204,0.62135 0.461513,0.90941 a 0.3318758,0.3318758 0 0 0 0.458273,0.10047 0.3318758,0.3318758 0 0 0 0.103068,-0.45827 c -0.393413,-0.61822 -0.638705,-1.31273 -0.639119,-1.95237 -3.32e-4,-0.63963 0.219781,-1.22203 0.808299,-1.70993 a 0.3318758,0.3318758 0 0 0 0.04408,-0.468 0.3318758,0.3318758 0 0 0 -0.267058,-0.11791 0.3318758,0.3318758 0 0 0 -0.20094,0.0759 c -0.258478,0.21429 -0.46302,0.45454 -0.622267,0.70977 -0.137602,-0.0472 -0.226913,-0.10862 -0.298817,-0.18279 -0.10406,-0.10724 -0.184606,-0.26251 -0.269649,-0.47512 -0.05278,-0.13209 -0.184035,-0.2156 -0.326042,-0.20808 z m -5.80847,2.41958 h 2.349706 c -0.118377,0.3061 -0.235549,0.61305 -0.353916,0.91915 l -1.163509,0.008 c -0.158424,8.3e-4 -0.316732,10e-4 -0.475127,0.003 z m 1.970511,1.5829 c 0.212547,0.42745 0.345473,1.16084 0.245017,1.56409 -0.149108,0.31807 -0.392111,0.56324 -0.669585,0.77395 0.0043,-0.0113 0.01008,-0.0227 0.01427,-0.0344 0.164026,-0.4574 0.208936,-0.97522 -0.05445,-1.44287 -0.06362,-0.11415 -0.18808,-0.18045 -0.318265,-0.16919 -0.04738,0.004 -0.09342,0.0188 -0.134825,0.0421 -0.15992,0.0904 -0.216087,0.29347 -0.1251,0.45309 0.150618,0.26742 0.135471,0.53582 0.0078,0.89192 -0.02824,0.0788 -0.0647,0.1604 -0.103711,0.24371 -0.036,-0.19321 -0.110276,-0.39324 -0.268355,-0.56911 -0.171758,-0.23631 -0.347682,-0.46877 -0.453086,-0.68969 -0.1054,-0.2209 -0.14264,-0.4088 -0.07973,-0.62161 a 0.33190922,0.33190922 0 0 0 0,-0.005 c 0.03906,-0.14095 0.156008,-0.28308 0.276134,-0.42522 0.370708,-0.003 0.741828,-0.005 1.112948,-0.009 z m -4.5185658,4.94961 c -0.3195332,-0.004 -0.6577477,0.0448 -1.0040532,0.12505 a 0.3318758,0.3318758 0 0 0 -0.2495538,0.3993 0.3318758,0.3318758 0 0 0 0.3992861,0.2476 c 0.6139599,-0.1425 1.1470085,-0.135 1.470106,0.0143 0.3231008,0.14929 0.5094821,0.39645 0.5094821,1.01183 a 0.3318758,0.3318758 0 0 0 0.330578,0.33318 0.3318758,0.3318758 0 0 0 0.3331733,-0.33318 c 0,-0.7859 -0.3529332,-1.36287 -0.8964525,-1.614 -0.2717596,-0.12557 -0.573033,-0.18068 -0.892566,-0.18408 z m 7.4458118,0 c -0.319534,0.004 -0.620156,0.0586 -0.891916,0.1841 -0.543519,0.25113 -0.897099,0.82809 -0.897099,1.614 a 0.3318758,0.3318758 0 0 0 0.33317,0.33317 0.3318758,0.3318758 0 0 0 0.331228,-0.33317 c 0,-0.61539 0.186381,-0.86255 0.509478,-1.01184 0.323098,-0.14926 0.855499,-0.15676 1.46946,-0.0143 a 0.3318758,0.3318758 0 0 0 0.399937,-0.2476 0.3318758,0.3318758 0 0 0 -0.250205,-0.39929 c -0.346306,-0.0804 -0.68452,-0.12851 -1.004053,-0.12506 z" />
  </g>
</svg>
